# xmcd
# 
# Track frame offsets:
#     150
#     17975
#     39805
#     58721
#     65686
# 
# Disc length: 1113
# 
# Revision: 0
# Processed by: cddbd v1.5.2PL0 Copyright (c) Steve Scherf et al.
# Submitted via: fre:ac v1.0.17
# 
DISCID=3d045705
DTITLE=トミタ栞 - だめだめだ
DYEAR=2014
DGENRE=JPop
TTITLE0=だめだめだ
TTITLE1=めぐりめぐる
TTITLE2=HAPPY AND HAPPY (TeddyLoid HAPPY LUCKY Remix)
TTITLE3=だめだめだ (NARUTO Ver.)
TTITLE4=だめだめだ (Instrumental)
EXTD=
EXTT0=
EXTT1=
EXTT2=
EXTT3=
EXTT4=
PLAYORDER=
